<svg xmlns="http://www.w3.org/2000/svg" width="320" height="94" viewBox="0 0 320 94"> <defs> <style>.a{fill:#2a3b51;}.b{fill:#378eff;}</style> </defs> <g transform="translate(-1573.572 -284.5)"> <g transform="translate(1573.572 284.5)"> <g transform="translate(0 11.611)"> <path class="a" d="M738.244,545.65H729.6a4.63,4.63,0,0,1-4.405-3.208l-7.106-22a4.632,4.632,0,0,1,4.405-6.056h11.226a1.543,1.543,0,0,1,1.524,1.3l4.52,28.177A1.544,1.544,0,0,1,738.244,545.65Z" transform="translate(-717.865 -494.644)"></path> <path class="a" d="M787.221,514.248H776.31a1.544,1.544,0,0,1-1.532-1.356l-5.862-47.918a1.543,1.543,0,0,1,1.531-1.732h16.774a1.544,1.544,0,0,1,1.543,1.544V512.7A1.544,1.544,0,0,1,787.221,514.248Z" transform="translate(-749.214 -463.242)"></path> </g> <path class="b" d="M7951.081,23527.063l8.439-39c-6.879,4.256-7.406,4.553-12.252,7.6a8.99,8.99,0,0,1-1.873.883,1.335,1.335,0,0,1-1.4-1.531l2.2-59.529a1.543,1.543,0,0,1,1.543-1.488h21.672a1.546,1.546,0,0,1,1.508,1.875l-8.8,41h19.42a1.546,1.546,0,0,1,1.33,2.328l-30.371,48.414a.744.744,0,0,1-.652.383A.766.766,0,0,1,7951.081,23527.063Z" transform="translate(-7900.789 -23434)"></path> </g> <g transform="translate(1676.535 308.531)"> <path class="a" d="M803.26,483.973l-2.142,9.7-7.566,0a5.744,5.744,0,0,0-5.626,4.032,4.823,4.823,0,0,0-.187.948l-2.881,13.041c-.7,3.157.5,4.528,3.576,4.53l13.588.008,7.125-32.246Zm-12.139,26.022,2.335-10.567,6.387,0L797.509,510Zm15.165,6.222,17.261.01,4.275-19.348a2.709,2.709,0,0,0-3.046-3.2l-.062.006-13.448-.007L810,499.392l11.368.007-.728,3.293-11.367-.007Zm6.991-5.392.726-3.287,5.573,0-.728,3.294Zm31.269-10.869,1.385-6.266-4.263,0,.707-3.2-6.075,0-.708,3.2-3.67,0-1.385,6.265,3.67,0-2.832,12.82a2.722,2.722,0,0,0,2.751,3.48h0c.1,0,.193-.006.289-.014l6.525,0,1.434-6.493-4.254,0,2.161-9.78Zm.665,16.283,17.261.01,4.275-19.348a2.709,2.709,0,0,0-3.037-3.21h0l-.058.005-13.464-.008-1.263,5.718,11.368.006-.73,3.3-11.367-.006Zm6.982-5.387.727-3.294,5.574,0-.728,3.294Z" transform="translate(-784.665 -483.973)"></path> <path class="a" d="M904.215,498.652c.85-2.422-.348-4.644-2.676-4.964a4.286,4.286,0,0,0-.93-.023l-7.6,0,2.143-9.7-6.033,0L881.993,516.2l6.034,0,3.707-16.777,6.434,0L894.46,516.2l5.881,0Zm1.09,14.362a2.646,2.646,0,0,0,2.877,3.218,2.008,2.008,0,0,0,.231-.021l13.457.008,1.191-5.39-11.382-.006.727-3.294,11.368.006,2.354-10.653a2.647,2.647,0,0,0-2.872-3.224c-.076.005-.151.012-.227.021l-10.1-.006a4.563,4.563,0,0,0-4.158,3.544v0a2.812,2.812,0,0,0-.046.294Zm8.176-10.332.728-3.293,5.617,0-.727,3.293Zm22.915-5.475.778-3.521-6.072,0-4.98,22.538,6.072,0,2.677-12.114,8.887-3.1,1.466-6.634Zm8.975,13.723c-.932,2.551.3,4.923,2.74,5.3a4.574,4.574,0,0,0,1.3.005l8.337,0c3.262,0,5.061-1.6,5.877-5.3l2.687-12.16c.834-2.507-.452-4.771-2.874-5.057a4.493,4.493,0,0,0-.762-.021l-8.792,0c-3.219,0-5.091,1.735-5.829,5.074Zm5.991-.453L953.8,499.45l6.483,0-2.436,11.022Zm16.061,2.571a2.647,2.647,0,0,0,2.881,3.215,1.966,1.966,0,0,0,.218-.02l13.457.008,1.191-5.389-11.368-.007.728-3.294,11.367.007,2.354-10.65a2.646,2.646,0,0,0-2.871-3.224c-.075.005-.151.012-.226.021l-10.107-.006a4.563,4.563,0,0,0-4.158,3.544v0a2.635,2.635,0,0,0-.046.294Zm8.175-10.333.728-3.293,5.61,0-.728,3.293Zm12.63,13.591,12.182.006a3.6,3.6,0,0,0,3.641-2.4,3.014,3.014,0,0,0,.143-.572l1.737-7.858a2.188,2.188,0,0,0-1.98-2.949h0a2.839,2.839,0,0,0-.5.018l-6.927,0,.859-3.889,10.06.005.444-2.012A2.16,2.16,0,0,0,1006,493.7h0a2.754,2.754,0,0,0-.592.022l-9.2,0a3.811,3.811,0,0,0-3.617,2.8,3.243,3.243,0,0,0-.07.351l-1.627,7.362a2.312,2.312,0,0,0,2.1,3.113h0a2.706,2.706,0,0,0,.343,0l6.932,0-.818,3.7-10.06-.005Z" transform="translate(-790.967 -483.961)"></path> </g> </g> </svg> 